/* XPM */
static char *ovpref_xpm[] = {
/* width height num_colors chars_per_pixel */
"    32    32      256            2",
/* colors */
"`` c #1c1a04",
"`. c #a48e14",
"`# c #d4ca74",
"`a c #cccaac",
"`b c #ece6b4",
"`c c #5c5a1c",
"`d c #948e74",
"`e c #e4e6dc",
"`f c #9c7204",
"`g c #bcae74",
"`h c #c4aa24",
"`i c #f4f6e4",
"`j c #e4daa4",
"`k c #7c6e1c",
"`l c #4c460c",
"`m c #c4ba74",
"`n c #d4aa14",
"`o c #dcdacc",
"`p c #c4beac",
"`q c #eceee4",
"`r c #7c5a04",
"`s c #8c7a3c",
"`t c #f4f6ec",
"`u c #9c8e44",
"`v c #fce63c",
"`w c #fcf2a4",
"`x c #745204",
"`y c #aca274",
"`z c #b4aa64",
"`A c #4c4a34",
"`B c #343604",
"`C c #746e54",
"`D c #ccc684",
"`E c #ccb64c",
"`F c #d4ca8c",
"`G c #645e34",
"`H c #e4e2d4",
"`I c #94863c",
"`J c #fcfeec",
"`K c #dcd2a4",
"`L c #ece6bc",
"`M c #545214",
"`N c #eceeec",
"`O c #bca24c",
"`P c #6c620c",
"`Q c #ece6d4",
"`R c #ece2bc",
"`S c #4c4a1c",
"`T c #e4dacc",
"`U c #fcf6ec",
"`V c #a49a54",
"`W c #242604",
"`X c #9c967c",
"`Y c #dcdac4",
"`Z c #c4b694",
"`0 c #ccc6bc",
"`1 c #bcaa74",
"`2 c #c4b24c",
"`3 c #847a54",
"`4 c #e4da7c",
"`5 c #f4eebc",
"`6 c #bc9e1c",
"`7 c #d4d2b4",
"`8 c #645a1c",
".` c #948634",
".. c #fcfedc",
".# c #746624",
".a c #f4f2cc",
".b c #8c8a6c",
".c c #f4e6bc",
".d c #ece6e4",
".e c #7c7e6c",
".f c #acaea4",
".g c #7c7244",
".h c #4c4214",
".i c #d4be6c",
".j c #ccc6a4",
".k c #f4eed4",
".l c #8c825c",
".m c #f4e68c",
".n c #acaa9c",
".o c #bcb264",
".p c #44421c",
".q c #ccc29c",
".r c #c4b664",
".s c #f4eeec",
".t c #fcfafc",
".u c #aca264",
".v c #645a24",
".w c #a48e3c",
".x c #ecda4c",
".y c #cccabc",
".z c #fcf6d4",
".A c #dcdedc",
".B c #8c8244",
".C c #bcaa64",
".D c #545224",
".E c #dcd29c",
".F c #948654",
".G c #dcd2bc",
".H c #ece6cc",
".I c #ecead4",
".J c #e4dedc",
".K c #fcfaec",
".L c #a49a6c",
".M c #342e04",
".N c #a49a8c",
".O c #e4e2c4",
".P c #c4be8c",
".Q c #847e5c",
".R c #a48604",
".S c #fcf2cc",
".T c #bcbaac",
".U c #847a34",
".V c #f4eee4",
".W c #ccba64",
".X c #242204",
".Y c #e4ca6c",
".Z c #f4eaa4",
".0 c #949284",
".1 c #e4dea4",
".2 c #ccbe74",
".3 c #dcb62c",
".4 c #dcdecc",
".5 c #74622c",
".6 c #947e3c",
".7 c #f4f6fc",
".8 c #a48e44",
"#` c #fcf64c",
"#. c #fcfe9c",
"## c #947a34",
"#a c #a4822c",
"#b c #f4e284",
"#c c #b49a2c",
"#d c #fcee64",
"#e c #443a0c",
"#f c #bcb69c",
"#g c #c4aa6c",
"#h c #acaa7c",
"#i c #e4de9c",
"#j c #6c662c",
"#k c #e4be1c",
"#l c #74620c",
"#m c #ac8a34",
"#n c #a4a28c",
"#o c #b4a264",
"#p c #2c2e04",
"#q c #b4aa8c",
"#r c #c4a61c",
"#s c #d4c274",
"#t c #7c6a1c",
"#u c #54523c",
"#v c #948a5c",
"#w c #d4ceb4",
"#x c #544204",
"#y c #dcce84",
"#z c #ac9a5c",
"#A c #e4debc",
"#B c #847a64",
"#C c #84723c",
"#D c #d4c694",
"#E c #8c7e4c",
"#F c #6c661c",
"#G c #9c9a8c",
"#H c #ac923c",
"#I c #dcca6c",
"#J c #ccaa2c",
"#K c #e4d2ac",
"#L c #544a14",
"#M c #e4e2e4",
"#N c #fcfefc",
"#O c #5c5214",
"#P c #2c2604",
"#Q c #d4d2c4",
"#R c #ccc6b4",
"#S c #44422c",
"#T c #c4be9c",
"#U c #7c6a2c",
"#V c #c4be7c",
"#W c #c4c2a4",
"#X c #4c4e2c",
"#Y c #948a44",
"#Z c #eceac4",
"#0 c #e4decc",
"#1 c #c4ba8c",
"#2 c #847e4c",
"#3 c #645e14",
"#4 c #4c4614",
"#5 c #c4ba6c",
"#6 c #f4f2ec",
"#7 c #fcfad4",
"#8 c #dcd694",
"a` c #dcd6c4",
"a. c #fcf6c4",
"a# c #bcbeb4",
"aa c #a4924c",
"ab c #d4c67c",
"ac c #ac9e54",
"ad c #847644",
"ae c #1c1e04",
"af c #fcf6a4",
"ag c #9c9a7c",
"ah c #f4f6cc",
"ai c #f4eabc",
"aj c #eceae4",
"ak c #d4c26c",
"al c #645e24",
"am c #948a54",
"an c #eceacc",
"ao c #f4f2e4",
"ap c #443e0c",
"aq c #e4e6e4",
"ar c #e4daac",
"as c #dcdad4",
"at c #f4f6f4",
"au c #b4aa6c",
"av c #645e3c",
"aw c #e4e2dc",
"ax c #fcfef4",
"ay c #eceef4",
"az c #ece6dc",
"aA c #fcf6f4",
"aB c #ccc6c4",
"aC c #fcfee4",
"aD c #ccc6ac",
"aE c #f4eedc",
"aF c #acaaa4",
"aG c #c4b66c",
"aH c #cccac4",
"aI c #bcaa6c",
"aJ c #eceadc",
"aK c #fcfaf4",
"aL c #f4eaac",
"aM c #94928c",
"aN c #e4dec4",
"aO c #544a1c",
"aP c #e4ded4",
"aQ c #847e54",
"aR c #645e1c",
"aS c #4c461c",
"aT c #f4f2f4",
"aU c #fcfadc",
"aV c #000000",
"aW c #000000",
"aX c #000000",
"aY c #000000",
"aZ c #000000",
"a0 c #000000",
"a1 c #000000",
"a2 c #000000",
"a3 c #000000",
"a4 c #000000",
"a5 c #000000",
"a6 c #000000",
"a7 c #000000",
"a8 c #000000",
/* pixels */
"#N#N#N#Nat#6#6ajawat#N#N#N#N#N#N#N#N#N#N#N#N#N#N#N#N#N#N#N#N#N#N",
"#N#N#N`o`1ao.K.K#6aj.t#N#N#N#N#N#N#N#N#N#N#N#N#N#N#N#N#N#N#N#N#N",
"#N#N#N#w#Eaw#N#N#N#N.d#N#N#N#N#N#N#N#N#N#N#N#N#N#N#N#N#N#N#N#N#N",
"#N#N#NaAaT#6#N#N#N#N.s#M#N#N#N#N#N#N#N#N#N#N#N#N#N#N#N#N#N#N#N#N",
"#N#N#N#N#N.taK#N#N#N#N.J#N#N#N#N#N#N#N#N#N#N#N#N#N#N#N#N#N#N#N#N",
"#N#N#N#N#N#NaT#N#N#N#N.d#N#N#N#N#N#N#N#NaAaqaw.saK#N#N#N#N#N#N#N",
"#N#N#N#N#N#NaT.Kaxaxax.V.t#N#N#N#N#N.J.n`d`3#v`y.nax#N#N#N#N#N#N",
"#N#N#N#N#N#NataEaCaUaUaz.TaA#N#N.d#Gav.haS`S.p.X`C#N#N#N#N#N#N#N",
"#N#N#N#N#N#NaA`H#7.S.z.q`X#N#NaH.lad#E.B.`#O.X``.n#N#N#N#N#N#N#N",
"#N#N#N#N#N#N#N`T.cai.c.F#n#N`0am#z`z.Caa`8#p``#BaK#N#N#N#N#N#N#N",
"#N#N#N#N#N#N#NaP`K`j#gaO.T.A`z.W.2.r`u#O`B#P`3at#N#N#N#N#N#N#N#N",
"#N#N#N#N#N#N#Naj#1`1.g.p`p`F.i.O`K#Ka``XaO`d.7#N#N#N#N#N#N#N#N#N",
"#N#N#N#N#N#N#N.d#o.U#4`Gabak.E#N.Z.Y..#N`Hat#N#N#N#N#N#N#N#N#N#N",
"#N#N#N#N#N#N#N#Q`u.v.v.o#I#i#N#N`w`n#J.m`JaT#N#N#N#N#N#N#N#N#N#N",
"#N#N#N#N#N#N#N#1aa.vac#b.ZaC.z`5`h.R`f.3afaoaA#N#N#N#N#N#N#N#N#N",
"#N#N#N#N#N#NayaI#Y.U`4`##V#i#yaGaG`.#r#k#d.z.V#N#N#N#N#N#N#N#N#N",
"#N#N#N#N#N#N`0`O.``E`2#3#F`u`V`u.z#.#``v.x#y.V#N#N#N#N#N#N#N#N#N",
"#N#N#N#N#NaT#g#m#c`6#3`M`c#3.##t`D.W`x`r###AaK.t#N#N#N#N#N#N#N#N",
"#N#N#N#N#N#K#a#Uab#lap`B`B`laR#t`I#w.0`3#W#N#NaKaA#N#N#N#N#N#N#N",
"#N#N#N#N`Q#m#x#2`J`7.g.0.e`A.M.M#j.Iax#Na``Y`U#N.t`QaA#N#N#N#N#N",
"#N#N#N#Nas.5ap#f#N#NaD#f#Naj.f#u`W.h.v#h#N#N#N#Nax.k.G.t#N#N#N#N",
"#N#N#N#N#NaqaHaE#N#Nao.q.t#N#Nat.n`A````.L`J#N#Nax.z`Ka`#N#N#N#N",
"#N#N#N#N#N#NajaK#N#NaK`HaK#N#N#N#N`N#G#S.Q.K#N#N#Nax`5#D`q#N#N#N",
"#N#N#N#N#N#N`Hax#N#N#N.K`q#N#N#N#N#N#N.s`o`H`H.VaA#NaC#8.j#N#N#N",
"#N#N#N#N#N.t`e#N#N#N#N.K`q#N#N#N#N#N#N#N#N#NaA#6aJ.I.k#i#o.d#N#N",
"#N#N#N#N#Nataw#N#N#N#NaKaK#N#N#N#N#N#N#N#N#N#N#N#N.t#6aNau#W#N#N",
"#N#N#N#N#N.tan`J#N#N#Naj#N#N#N#N#N#N#N#N#N#N#N#N#N#N#N#N#6`N#N#N",
"#N#N#N#N#N#N`LaC#N#Najat#N#N#N#N#N#N#N#N#N#N#N#N#N#N#N#N#N#N#N#N",
"#N#N#N#N#N#N`L.k#N#6.V#N#N#N#N#N#N#N#N#N#N#N#N#N#N#N#N#N#N#N#N#N",
"#N#N#N#N#N#N`R`b#A`e#N#N#N#N#N#N#N#N#N#N#N#N#N#N#N#N#N#N#N#N#N#N",
"#N#N#N#N#N#N`q.P`a.t#N#N#N#N#N#N#N#N#N#N#N#N#N#N#N#N#N#N#N#N#N#N",
"#N#N#N#N#N#NaK`Hat#N#N#N#N#N#N#N#N#N#N#N#N#N#N#N#N#N#N#N#N#N#N#N"
};
